<?xml version="1.0" encoding="UTF-8"?>
<svg id="Layer_1" data-name="Layer 1" xmlns="http://www.w3.org/2000/svg" viewBox="0 0 558.46 197.49">
  <defs>
    <style>
      .cls-1 {
        fill: #90c73e;
      }

      .cls-2 {
        fill: #f58a49;
      }

      .cls-3 {
        fill: #231f20;
      }

      .cls-4 {
        fill: #dee23b;
      }

      .cls-5 {
        fill: #c1d730;
      }

      .cls-6 {
        fill: #f16748;
      }

      .cls-7 {
        fill: #f3eb4a;
      }

      .cls-8 {
        fill: #faae42;
      }

      .cls-9 {
        fill: #a8ce38;
      }

      .cls-10 {
        fill: #84c341;
      }

      .cls-11 {
        fill: #ffd437;
      }

      .cls-12 {
        fill: #ef4c47;
      }
    </style>
  </defs>
  <g>
    <path class="cls-3" d="M73.13,39.26c-7.5-9.02-18.08-13.79-30.6-13.79-11.78,0-22.61,4.8-30.51,13.53C4.27,47.56,0,59.15,0,71.61s4.6,24.88,12.96,33.35c8.14,8.25,19.22,12.79,31.21,12.79,7.96,0,14.86-1.5,21.12-4.58,5.41-2.67,10.38-6.57,15.2-11.95l1.23-1.37-10.58-9.48-1.23,1.29c-3.57,3.74-7.18,6.45-11.05,8.31-4.36,2.09-9.05,3.1-14.36,3.1-7.04,0-13.65-2.48-18.61-6.99-4.9-4.45-8.05-10.66-9.16-18.04h66.83l.18-1.64c.18-1.58.18-2.94.18-4.14,0-12.91-3.83-24.64-10.78-33ZM42.2,39.82c7.42,0,13.47,2.69,17.97,8,3.68,4.33,6.14,10.38,7.04,17.18H16.73c1.05-6.88,3.89-13.05,8.11-17.54,4.7-5,10.7-7.64,17.36-7.64Z"/>
    <path class="cls-3" d="M250.22,35.32c-6.51-6.1-15.93-9.19-27.98-9.19-13.9,0-23.78,3.65-31.61,7.22l-1.55.71,5.04,13.81,1.82-.83c6.87-3.15,14.66-6.07,24.99-6.07,7.54,0,13.39,1.81,17.37,5.37,4.02,3.6,6.05,8.95,6.05,15.91v.54c-6.26-1.65-13.67-3.04-24.24-3.04-11.21,0-20.64,2.55-27.27,7.37-7.08,5.15-10.83,12.77-10.83,22.04s3.69,16.21,10.67,21.41c6.07,4.52,13.55,7.01,22.21,7.01,7.21,0,14.43-1.56,20.22-4.62,3.41-1.81,6.51-4.12,9.25-6.89l-.63,9.71h15.83l.63-53.68c0-11.58-3.35-20.59-9.95-26.77ZM244.51,75.96v6.81c0,5.84-2.71,11.19-7.64,15.08-4.94,3.9-11.65,6.04-18.89,6.04-5.4,0-10.33-1.46-13.87-4.1-3.67-2.75-5.62-6.59-5.62-11.11,0-4.84,1.91-8.68,5.66-11.43,3.97-2.91,9.94-4.44,17.27-4.44,7.77,0,15.34,1.03,23.09,3.16Z"/>
    <path class="cls-3" d="M436.16,35.32c-6.51-6.1-15.93-9.19-27.98-9.19-13.9,0-23.78,3.65-31.61,7.22l-1.55.71,5.04,13.81,1.82-.83c6.87-3.15,14.66-6.07,24.99-6.07,7.54,0,13.39,1.81,17.37,5.37,4.02,3.6,6.05,8.95,6.05,15.91v.54c-6.26-1.65-13.67-3.04-24.24-3.04-11.21,0-20.64,2.55-27.27,7.37-7.08,5.15-10.83,12.77-10.83,22.04s3.69,16.21,10.67,21.41c6.07,4.52,13.55,7.01,22.21,7.01,7.21,0,14.43-1.56,20.22-4.62,3.41-1.81,6.51-4.12,9.25-6.89l-.63,9.71h15.83v-53.68c0-11.58-2.72-20.59-9.32-26.77ZM430.45,75.96v6.81c0,5.84-2.71,11.19-7.64,15.08-4.94,3.9-11.65,6.04-18.89,6.04-5.4,0-10.33-1.46-13.87-4.1-3.67-2.75-5.62-6.59-5.62-11.11,0-4.84,1.91-8.68,5.66-11.43,3.97-2.91,9.94-4.44,17.27-4.44,7.77,0,15.34,1.03,23.09,3.16Z"/>
    <path class="cls-3" d="M524.17,27.28v50.4c0,7.22-2.34,13.43-6.77,17.97-4.27,4.36-10.24,6.77-16.81,6.77s-12.25-2.17-15.96-6.28c-3.7-4.1-5.66-10.14-5.66-17.47V27.28h-16.32v54.5c0,10.53,3.13,19.45,9.05,25.8,6.09,6.54,14.83,10,25.28,10,7.13,0,13.47-1.72,18.83-5.13,3.09-1.96,5.85-4.44,8.37-7.52v10.85h16.16V27.28h-16.16Z"/>
    <polygon class="cls-3" points="179.28 27.28 158.36 27.28 115.22 72.27 115.22 25.47 98.27 25.47 98.27 115.78 114.59 115.78 115.22 92.55 130.43 77.2 159.41 115.78 179.13 115.78 141.73 65.69 179.28 27.28"/>
    <path class="cls-3" d="M346.18,35.47c-6.09-6.54-14.83-10-25.28-10-11.27,0-20.39,4.23-27.19,12.59V0h-16.32l-.63,115.78h16.32l.63-50.4c0-14.56,9.7-24.73,23.58-24.73,6.73,0,12.25,2.17,15.96,6.28,3.7,4.1,5.66,10.14,5.66,17.47l-.63,51.39h16.32l.63-54.5c0-10.53-3.13-19.45-9.05-25.8Z"/>
    <g>
      <path class="cls-3" d="M547.32,14.25h4.03c1.14,0,2.03.34,2.61.91.48.49.75,1.16.75,1.95v.03c0,1.49-.89,2.38-2.15,2.74l2.44,3.43h-1.89l-2.22-3.16h-1.99v3.16h-1.59v-9.05ZM551.24,18.74c1.14,0,1.86-.59,1.86-1.51v-.03c0-.97-.7-1.5-1.88-1.5h-2.31v3.04h2.33Z"/>
      <path class="cls-3" d="M550.7,12.19c3.68,0,6.67,2.99,6.67,6.67s-2.99,6.67-6.67,6.67-6.67-2.99-6.67-6.67,2.99-6.67,6.67-6.67M550.7,11.09c-4.29,0-7.76,3.48-7.76,7.76s3.47,7.76,7.76,7.76,7.76-3.48,7.76-7.76-3.47-7.76-7.76-7.76h0Z"/>
    </g>
  </g>
  <g>
    <path class="cls-3" d="M12.97,189.96c4.25,0,8.07-3.71,8.07-10.06,0-5.74-2.6-9.45-7.38-9.45-2.07,0-4.13,1.11-5.85,2.56l.11-3.33v-7.42h-3.17v27.24h2.52l.31-1.91h.11c1.64,1.49,3.56,2.37,5.28,2.37ZM12.43,187.28c-1.22,0-2.91-.5-4.51-1.91v-9.72c1.76-1.68,3.37-2.52,4.93-2.52,3.48,0,4.9,2.72,4.9,6.81,0,4.59-2.26,7.34-5.32,7.34Z"/>
    <path class="cls-3" d="M26.12,197.49c3.71,0,5.66-2.79,6.96-6.46l7-20.12h-3.1l-3.33,10.25c-.5,1.64-1.03,3.56-1.53,5.24h-.15c-.61-1.72-1.22-3.63-1.84-5.24l-3.75-10.25h-3.29l7.46,18.63-.42,1.38c-.77,2.3-2.1,3.94-4.17,3.94-.46,0-.92-.08-1.38-.23l-.69,2.49c.61.23,1.34.38,2.22.38Z"/>
    <path class="cls-3" d="M60.89,189.96c6.31,0,10.75-5.05,10.75-13.12s-4.44-12.89-10.75-12.89-10.71,4.86-10.71,12.89,4.4,13.12,10.71,13.12ZM60.89,187.13c-4.48,0-7.38-4.02-7.38-10.29s2.91-10.06,7.38-10.06,7.42,3.83,7.42,10.06-2.95,10.29-7.42,10.29Z"/>
    <path class="cls-3" d="M83.96,189.96c4.55,0,8.64-3.56,8.64-9.72s-4.09-9.79-8.64-9.79-8.61,3.56-8.61,9.79,4.05,9.72,8.61,9.72ZM83.96,187.32c-3.17,0-5.32-2.83-5.32-7.08s2.14-7.15,5.32-7.15,5.36,2.87,5.36,7.15-2.14,7.08-5.36,7.08Z"/>
    <path class="cls-3" d="M97.46,189.5h3.14v-4.9l3.44-4.02,5.43,8.91h3.44l-7-11.09,6.2-7.5h-3.56l-7.84,9.72h-.11v-18.36h-3.14v27.24Z"/>
    <path class="cls-3" d="M119.73,189.96c.8,0,1.38-.11,1.84-.34l-.42-2.37c-.31.08-.46.08-.65.08-.5,0-.92-.34-.92-1.34v-23.72h-3.18v23.49c0,2.68.96,4.21,3.33,4.21Z"/>
    <path class="cls-3" d="M130.43,189.96c2.33,0,4.36-1.19,6.12-2.68h.11l.31,2.22h2.6v-11.44c0-4.59-1.95-7.61-6.46-7.61-2.98,0-5.58,1.26-7.31,2.41l1.22,2.14c1.45-.96,3.4-1.91,5.55-1.91,3.02,0,3.79,2.26,3.83,4.59-7.96.88-11.4,2.87-11.4,7,0,3.37,2.33,5.28,5.43,5.28ZM131.31,187.36c-1.8,0-3.21-.8-3.21-2.87,0-2.41,2.03-3.83,8.3-4.55v5.05c-1.8,1.57-3.29,2.37-5.09,2.37Z"/>
    <g>
      <path class="cls-3" d="M147.34,165.05h4.03c1.14,0,2.03.34,2.61.91.48.49.75,1.16.75,1.95v.03c0,1.49-.89,2.38-2.15,2.74l2.44,3.43h-1.89l-2.22-3.16h-1.99v3.16h-1.59v-9.05ZM151.26,169.54c1.14,0,1.86-.59,1.86-1.51v-.03c0-.97-.7-1.5-1.88-1.5h-2.31v3.04h2.33Z"/>
      <path class="cls-3" d="M150.72,162.98c3.68,0,6.67,2.99,6.67,6.67s-2.99,6.67-6.67,6.67-6.67-2.99-6.67-6.67,2.99-6.67,6.67-6.67M150.72,161.89c-4.29,0-7.76,3.48-7.76,7.76s3.47,7.76,7.76,7.76,7.76-3.48,7.76-7.76-3.47-7.76-7.76-7.76h0Z"/>
    </g>
  </g>
  <g>
    <path class="cls-12" d="M4.76,141.37h45.09v8.15H4.76c-2.16,0-3.91-1.75-3.91-3.91v-.33c0-2.16,1.75-3.91,3.91-3.91Z"/>
    <path class="cls-10" d="M490.41,141.37h45.07c2.16,0,3.91,1.75,3.91,3.91v.33c0,2.16-1.75,3.91-3.91,3.91h-45.07v-8.15h0Z"/>
    <rect class="cls-1" x="440.66" y="141.37" width="49.75" height="8.15"/>
    <rect class="cls-9" x="392.44" y="141.37" width="48.98" height="8.15"/>
    <rect class="cls-5" x="343.46" y="141.37" width="48.98" height="8.15"/>
    <rect class="cls-4" x="294.75" y="141.37" width="48.98" height="8.15"/>
    <rect class="cls-7" x="245" y="141.37" width="49.75" height="8.15"/>
    <rect class="cls-11" x="196.78" y="141.37" width="48.98" height="8.15"/>
    <rect class="cls-8" x="147.8" y="141.37" width="48.98" height="8.15"/>
    <rect class="cls-2" x="98.83" y="141.37" width="48.98" height="8.15"/>
    <rect class="cls-6" x="49.85" y="141.37" width="48.98" height="8.15"/>
  </g>
</svg>