<svg viewBox="0 0 151 28" xmlns="http://www.w3.org/2000/svg"><path d="m10.99 14.352c-0.3888-3.6445 3.29-6.5611 8.2108-6.5217s9.2254 3.0198 9.6094 6.6594c0.384 3.6445-3.2901 6.561-8.2109 6.5217-4.9208-0.0345-9.2253-3.0199-9.6093-6.6545m18.74 1.1263c-0.4457-4.515-5.3949-8.2136-11.065-8.2628-5.6698-0.04918-9.8985 3.5707-9.4529 8.0857s5.3996 8.2136 11.065 8.2628c5.6652 0.0492 9.8986-3.5707 9.453-8.0857z" fill="#FBB584"/><path d="m21.177 23.657c-2.7923 3.0297-7.2722 3.2805-10.003 0.5607-2.7353-2.7149-2.6879-7.3677 0.1043-10.392 2.7923-3.0248 7.2722-3.2756 10.003-0.5607 2.7306 2.7149 2.6879 7.3676-0.1043 10.392zm-10.339-9.9252c-3.2427 3.5117-3.2948 8.9219-0.1186 12.079 3.181 3.1576 8.3863 2.8625 11.629-0.6541 3.2474-3.5166 3.2995-8.9268 0.1185-12.079-3.1762-3.1527-8.3862-2.8625-11.629 0.6541z" fill="#F89B5C"/><path d="m11.137 2.4099c5.8026-2.2575 11.544 0.02951 12.819 5.1003 1.28 5.0708-2.3941 11.017-8.2014 13.27-5.8026 2.2624-11.544-0.0246-12.819-5.0954-1.2752-5.0757 2.3988-11.017 8.2014-13.275zm-5.3902 1.9378c-6.0254 4.9429-7.5566 12.114-3.4275 16.004 4.1291 3.8953 12.359 3.0395 18.38-1.9034 6.0207-4.9429 7.5567-12.114 3.4228-16.004-4.1291-3.8953-12.354-3.0444-18.375 1.9034z" fill="#F4731F"/><path d="m43.582 8.4005v11.204h-1.6924v-5.9069h-6.3999v5.9069h-1.6924v-11.204h1.6924v3.7576h6.3999v-3.7576h1.6924z"/><path d="m47.64 19.604c-0.7869 0-1.4127-0.2312-1.8773-0.6886-0.4693-0.4574-0.7064-1.0476-0.7064-1.7706v-0.6c0-0.7328 0.2371-1.3279 0.7064-1.7853 0.4598-0.4673 1.0856-0.7034 1.8773-0.7034h4.4136v-0.0442c0-0.8952-0.4741-1.3427-1.4222-1.3427h-4.9066v-1.4903h4.8781c1.0145 0 1.792 0.2656 2.3277 0.8066 0.5452 0.5165 0.8201 1.269 0.8201 2.2526v2.9707c0 0.7623-0.2465 1.3624-0.749 1.8001-0.4503 0.3984-1.0856 0.6-1.901 0.6h-3.4559l-0.0048-0.0049zm3.0862-4.0527h-2.6785c-0.8628 0-1.2989 0.3787-1.2989 1.1411v0.2754c0 0.7525 0.4314 1.1263 1.2989 1.1263h2.6785c0.8818 0 1.3226-0.3738 1.3226-1.1263v-0.2754c0-0.7624-0.4408-1.1411-1.3226-1.1411z"/><path d="m58.694 11.179h1.664c1.0524 0 1.8773 0.3148 2.4794 0.9493 0.602 0.6344 0.9007 1.5148 0.9007 2.646v4.8249h-1.6924v-4.7413c0-0.7033-0.1328-1.2148-0.3935-1.5345-0.3271-0.418-0.8012-0.6295-1.4222-0.6295h-1.4364c-0.6021 0-1.0714 0.2115-1.408 0.6295-0.2465 0.3197-0.3651 0.8312-0.3651 1.5345v4.7413h-1.6924v-4.8249c0-1.1312 0.2987-2.0116 0.9008-2.646 0.602-0.6345 1.4222-0.9493 2.4651-0.9493z"/><path d="m71.537 18.478c-0.602 0.7525-1.3463 1.1263-2.2423 1.1263h-1.043c-0.9386 0-1.6876-0.3049-2.2423-0.9197-0.5262-0.5755-0.7869-1.3919-0.7869-2.4444v-5.061h1.6782v5.0757c0 0.6148 0.128 1.0624 0.3792 1.3476 0.2892 0.3197 0.6732 0.482 1.1425 0.482h0.7348c0.4788 0 0.8628-0.1623 1.1567-0.482 0.2608-0.2803 0.3935-0.7328 0.3935-1.3476v-5.0757h1.664v5.0757c0 0.6148 0.128 1.0624 0.3793 1.3476 0.2891 0.3197 0.6731 0.482 1.1424 0.482h0.7349c0.4788 0 0.8628-0.1623 1.1567-0.482 0.2655-0.2803 0.3935-0.7328 0.3935-1.3476v-5.0757h1.6782v5.061c0 1.0525-0.275 1.8689-0.8154 2.4444-0.5547 0.6148-1.3085 0.9197-2.2566 0.9197h-1.0287c-0.8723 0-1.6119-0.3738-2.2139-1.1263h-0.0048z"/><path d="m82.811 12.699c-0.602 0-1.0714 0.2115-1.4079 0.6295-0.2466 0.3197-0.3651 0.8312-0.3651 1.5346v4.7412h-1.6924v-11.233h1.6924v3.3198c0.4883-0.3393 1.0477-0.5115 1.6782-0.5115h1.664c1.0524 0 1.8773 0.3148 2.4794 0.9493 0.602 0.6344 0.9007 1.5148 0.9007 2.646v4.8249h-1.6924v-4.7413c0-0.7033-0.1328-1.2148-0.3935-1.5345-0.3271-0.418-0.8012-0.6295-1.4222-0.6295h-1.4364l-0.0048 0.0049z"/><path d="m91.738 19.604c-0.7917 0-1.4128-0.2312-1.8773-0.6886-0.4694-0.4574-0.7064-1.0476-0.7064-1.7706v-0.6c0-0.7328 0.237-1.3279 0.7064-1.7853 0.4598-0.4673 1.0856-0.7034 1.8773-0.7034h4.4135v-0.0442c0-0.8952-0.474-1.3427-1.4222-1.3427h-4.9066v-1.4903h4.8782c1.0145 0 1.792 0.2656 2.3277 0.8066 0.5451 0.5165 0.8201 1.269 0.8201 2.2526v2.9707c0 0.7623-0.2513 1.3624-0.749 1.8001-0.4504 0.3984-1.0856 0.6-1.901 0.6h-3.456l-0.0047-0.0049zm3.0861-4.0527h-2.6784c-0.8628 0-1.299 0.3787-1.299 1.1411v0.2754c0 0.7525 0.4314 1.1263 1.299 1.1263h2.6784c0.8818 0 1.3227-0.3738 1.3227-1.1263v-0.2754c0-0.7624-0.4409-1.1411-1.3227-1.1411z"/><path d="m108.7 19.649c-0.19 0-0.365-0.0541-0.536-0.1623s-0.318-0.2853-0.45-0.5263l-4.864-10.56h1.82l4.03 8.7448 4.029-8.7448h1.821l-4.864 10.56c-0.123 0.246-0.27 0.4181-0.446 0.5263-0.175 0.1082-0.355 0.1623-0.54 0.1623z"/><path d="m117.55 9.4825c0 0.32461-0.109 0.58036-0.332 0.77706-0.223 0.1968-0.488 0.2951-0.796 0.2951s-0.555-0.0983-0.768-0.2951c-0.214-0.1967-0.318-0.45245-0.318-0.77706s0.104-0.58036 0.318-0.78201c0.213-0.20165 0.469-0.30002 0.768-0.30002 0.298 0 0.573 0.09837 0.796 0.30002s0.332 0.46232 0.332 0.78201zm-1.972 10.122v-8.425h1.721v8.425h-1.721z"/><path d="m124.42 14.647c0.911 0 1.579 0.1476 2.001 0.4378 0.536 0.3688 0.801 0.9492 0.801 1.7411v0.6295c0 0.782-0.265 1.3575-0.801 1.7263-0.422 0.2804-1.095 0.423-2.015 0.423h-5.385v-1.5198h5.385c0.744 0 1.114-0.2655 1.114-0.7918v-0.3345c0-0.536-0.37-0.8066-1.114-0.8066h-2.792c-0.901 0-1.565-0.1426-1.986-0.4229-0.527-0.3689-0.792-0.9443-0.792-1.7264v-0.6443c0-0.8016 0.265-1.382 0.792-1.741 0.421-0.2902 1.085-0.4378 1.986-0.4378h5.158v1.5198h-5.13c-0.734 0-1.1 0.2656-1.1 0.8017v0.3492c0 0.5262 0.361 0.7918 1.086 0.7918h2.792v0.0049z"/><path d="m130.74 9.4825c0 0.32461-0.109 0.58036-0.332 0.77706-0.222 0.1968-0.488 0.2951-0.796 0.2951s-0.555-0.0983-0.768-0.2951c-0.213-0.1967-0.318-0.45245-0.318-0.77706s0.105-0.58036 0.318-0.78201 0.469-0.30002 0.768-0.30002 0.574 0.09837 0.796 0.30002c0.223 0.20165 0.332 0.46232 0.332 0.78201zm-1.972 10.122v-8.425h1.721v8.425h-1.721z"/><path d="m137.84 19.604h-2.494c-1.005-0.0099-1.796-0.3148-2.37-0.905-0.574-0.5853-0.858-1.4214-0.858-2.5133v-1.564c0-1.1017 0.284-1.9427 0.858-2.528 0.574-0.5951 1.361-0.8952 2.37-0.905h2.494c1.015 0.0098 1.811 0.3099 2.38 0.905 0.573 0.5853 0.858 1.4263 0.858 2.528v1.564c0 1.0919-0.285 1.928-0.858 2.5133-0.574 0.5951-1.365 0.8951-2.38 0.905zm-0.128-1.5198c0.602 0 1.043-0.1918 1.323-0.5705 0.237-0.3197 0.35-0.7968 0.35-1.4165v-1.3771c0-0.6345-0.118-1.1116-0.35-1.4313-0.28-0.3885-0.726-0.5852-1.323-0.5852h-2.257c-0.592 0-1.028 0.1967-1.313 0.5852-0.227 0.3197-0.336 0.7968-0.336 1.4313v1.3771c0 0.6246 0.113 1.0968 0.336 1.4165 0.285 0.3787 0.721 0.5705 1.313 0.5705h2.257z"/><path d="m145.95 11.179h1.664c1.052 0 1.877 0.3148 2.479 0.9493 0.602 0.6344 0.901 1.5148 0.901 2.646v4.8249h-1.693v-4.7413c0-0.7033-0.132-1.2148-0.393-1.5345-0.327-0.418-0.801-0.6295-1.422-0.6295h-1.437c-0.602 0-1.071 0.2115-1.408 0.6295-0.246 0.3197-0.365 0.8312-0.365 1.5345v4.7413h-1.692v-4.8249c0-1.1312 0.299-2.0116 0.901-2.646 0.602-0.6345 1.422-0.9493 2.465-0.9493z"/></svg>