<?xml version="1.0" encoding="UTF-8"?><svg id="Layer_1" xmlns="http://www.w3.org/2000/svg" xmlns:xlink="http://www.w3.org/1999/xlink" viewBox="0 0 1200 308.33"><defs><style>.cls-1{fill:url(#linear-gradient);}.cls-2{fill:#fff;}</style><linearGradient id="linear-gradient" x1="57.32" y1="224.5" x2="191.86" y2="89.95" gradientTransform="matrix(1, 0, 0, 1, 0, 0)" gradientUnits="userSpaceOnUse"><stop offset="0" stop-color="#2A7DE1"/><stop offset="1" stop-color="#00c1de"/></linearGradient></defs><g><path class="cls-2" d="M326.43,124.85h11.9c2.07,0,3.83,1.53,4.12,3.58l2.01,14.21h.42c7.75-14.45,21.77-19.05,32.03-19.05,1.51,0,2.87,.05,4.13,.14,2.16,.17,3.83,1.98,3.83,4.15v14.96c0,2.42-2.06,4.35-4.47,4.15-1.36-.11-2.74-.16-4.12-.16-14.66,0-29.31,8.79-29.31,30.78v57.39c0,2.3-1.86,4.16-4.16,4.16h-16.38c-2.3,0-4.16-1.86-4.16-4.16v-105.99c0-2.3,1.86-4.16,4.16-4.16Z"/><path class="cls-2" d="M434.7,137.62h.42c6.49-9,18.22-15.49,31.82-15.49,24.92,0,40.83,14.45,40.83,41.25v71.63c0,2.3-1.86,4.16-4.16,4.16h-16.38c-2.3,0-4.16-1.86-4.16-4.16v-64.09c0-17.59-7.54-26.17-23.03-26.17-13.82,0-25.33,8.17-25.33,24.71v65.56c0,2.3-1.86,4.16-4.16,4.16h-16.38c-2.3,0-4.16-1.86-4.16-4.16V75.62c0-2.3,1.86-4.16,4.16-4.16h16.38c2.3,0,4.16,1.86,4.16,4.16v62Z"/><path class="cls-2" d="M529.55,182c0-34.76,25.33-59.88,58.21-59.88s58,25.12,58,59.88-24.91,59.88-58,59.88-58.21-25.12-58.21-59.88Zm91.29,0c0-23.66-16.12-37.27-33.08-37.27s-33.29,13.61-33.29,37.27,16.33,37.27,33.29,37.27,33.08-13.61,33.08-37.27Z"/><path class="cls-2" d="M824.34,163.16v71.84c0,2.3-1.86,4.16-4.16,4.16h-16.38c-2.3,0-4.16-1.86-4.16-4.16v-67.44c0-14.66-5.65-22.4-19.26-22.4s-21.15,10.47-21.15,21.98v67.86c0,2.3-1.86,4.16-4.16,4.16h-16.38c-2.3,0-4.16-1.86-4.16-4.16v-67.44c0-14.66-5.65-22.4-19.26-22.4s-20.94,11.1-20.94,23.24v66.6c0,2.3-1.86,4.16-4.16,4.16h-16.38c-2.3,0-4.16-1.86-4.16-4.16v-105.99c0-2.3,1.86-4.16,4.16-4.16h11.36c2.04,0,3.78,1.48,4.11,3.49l2.15,13.05h.63c5.86-10.68,16.12-19.26,30.99-19.26,13.64,0,22.89,5.25,28.87,14.18,1.59,2.37,5.01,2.6,6.76,.35,6.88-8.89,16.6-14.53,29.28-14.53,24.92,0,36.43,16.75,36.43,41.04Z"/><path class="cls-2" d="M879.83,131.5c0,3.65,4.4,5.61,7.02,3.08,8.26-7.98,19.88-12.45,31.5-12.45,26.8,0,51.09,23.24,51.09,59.88s-25.12,59.88-51.92,59.88c-12.96,0-24.87-5.27-33.31-14.46-2.41-2.62-6.76-1.34-7.24,2.18l-.82,5.96c-.28,2.06-2.05,3.59-4.12,3.59h-12.73c-2.3,0-4.16-1.86-4.16-4.16V75.62c0-2.3,1.86-4.16,4.16-4.16h16.38c2.3,0,4.16,1.86,4.16,4.16v55.88Zm-.42,50.5c0,21.98,14.03,37.27,32.45,37.27s32.66-15.28,32.66-37.06-14.24-37.48-32.87-37.48-32.24,15.49-32.24,37.27Z"/><path class="cls-2" d="M991.22,194.36v-65.35c0-2.3,1.86-4.16,4.16-4.16h16.38c2.3,0,4.16,1.86,4.16,4.16v65.56c0,15.7,8.79,24.71,23.66,24.71s24.71-9,24.71-24.92v-65.35c0-2.3,1.86-4.16,4.16-4.16h16.38c2.3,0,4.16,1.86,4.16,4.16v65.14c0,28.06-18.84,47.74-49.41,47.74s-48.36-19.68-48.36-47.53Z"/><path class="cls-2" d="M1193.26,134.02v12.63c0,3.14-3.36,5.2-6.11,3.7-7.84-4.29-17.97-7.08-28.23-7.08-12.98,0-20.1,5.02-20.1,12.98,0,8.58,8.58,11.73,23.03,15.91,18,4.82,38.1,10.89,38.1,34.34,0,21.57-16.96,35.38-45.22,35.38-14.46,0-27.99-3.75-38.27-10.89-1.1-.76-1.72-2.04-1.72-3.37v-13.54c0-3.38,3.79-5.31,6.57-3.39,8.66,5.99,19.58,10.26,32.58,10.26,14.03,0,21.98-5.86,21.98-14.24,0-9.42-9.84-12.56-25.54-17.38-18.63-5.44-35.59-12.14-35.59-32.45s16.33-34.76,43.34-34.76c12.19,0,24.74,3.22,33.18,8.33,1.24,.75,1.99,2.11,1.99,3.56Z"/></g><path class="cls-1" d="M242.08,140.17L141.65,39.73c-9.42-9.42-24.69-9.42-34.11,0L7.1,140.17c-9.42,9.42-9.42,24.69,0,34.11l100.44,100.44c9.42,9.42,24.69,9.42,34.11,0l100.44-100.44c9.42-9.42,9.42-24.69,0-34.11Zm-116.29,53.65c-21.17,.68-38.47-16.62-37.8-37.79,.61-19.17,16.23-34.79,35.4-35.4,21.17-.68,38.47,16.63,37.79,37.8-.61,19.17-16.23,34.79-35.4,35.4Z"/></svg>