<svg xmlns="http://www.w3.org/2000/svg" xmlns:xlink="http://www.w3.org/1999/xlink" id="Layer_1" data-name="Layer 1" viewBox="0 0 550.57 197.9"><defs><linearGradient id="linear-gradient" x1="43.04" y1="169.85" x2="50.09" y2="215.57" gradientTransform="translate(0 208.54) scale(1 -1)" gradientUnits="userSpaceOnUse"><stop offset=".31" stop-color="#0c4f96"></stop><stop offset=".37" stop-color="#205b9d"></stop><stop offset=".56" stop-color="#587db2"></stop><stop offset=".72" stop-color="#8296c2"></stop><stop offset=".84" stop-color="#9ba6cb"></stop><stop offset=".92" stop-color="#a5accf"></stop></linearGradient><linearGradient id="linear-gradient-2" x1="80.47" y1="155.67" x2="57.62" y2="33.79" gradientTransform="translate(0 208.54) scale(1 -1)" gradientUnits="userSpaceOnUse"><stop offset=".09" stop-color="#efa66f"></stop><stop offset=".11" stop-color="#ec9453"></stop><stop offset=".14" stop-color="#e9843a"></stop><stop offset=".17" stop-color="#e87b2b"></stop><stop offset=".19" stop-color="#e87826"></stop><stop offset=".71" stop-color="#e87826"></stop><stop offset=".78" stop-color="#e87826"></stop><stop offset=".82" stop-color="#e98236"></stop><stop offset=".9" stop-color="#ed9d62"></stop><stop offset=".92" stop-color="#efa66f"></stop></linearGradient><linearGradient id="linear-gradient-3" x1="36.66" y1="166.45" x2="9.99" y2="36.23" gradientTransform="translate(0 208.54) scale(1 -1)" gradientUnits="userSpaceOnUse"><stop offset=".03" stop-color="#a5accf"></stop><stop offset=".04" stop-color="#889ac4"></stop><stop offset=".07" stop-color="#5c7fb3"></stop><stop offset=".09" stop-color="#396aa6"></stop><stop offset=".11" stop-color="#205b9d"></stop><stop offset=".14" stop-color="#115297"></stop><stop offset=".15" stop-color="#0c4f96"></stop><stop offset=".71" stop-color="#0c4f96"></stop><stop offset=".79" stop-color="#0c4f96"></stop><stop offset=".82" stop-color="#1c599c"></stop><stop offset=".87" stop-color="#4873ac"></stop><stop offset=".94" stop-color="#8e9ec6"></stop><stop offset=".96" stop-color="#a5accf"></stop></linearGradient></defs><path d="M98.74,171.03c1.31,1.23,1.97,2.87,1.97,4.91v13.51c0,.27-.13.4-.4.4h-2.05c-.27,0-.4-.13-.4-.4v-1.65c0-.05-.02-.09-.06-.12s-.09,0-.14.04c-.67.81-1.54,1.42-2.61,1.83-1.07.42-2.27.62-3.58.62-1.9,0-3.5-.48-4.79-1.45s-1.93-2.44-1.93-4.42.73-3.6,2.19-4.77,3.49-1.75,6.09-1.75h4.67c.11,0,.16-.05.16-.16v-1.53c0-1.37-.38-2.45-1.15-3.24s-1.95-1.19-3.56-1.19c-1.29,0-2.33.25-3.14.74s-1.3,1.19-1.49,2.07c-.08.27-.24.39-.48.36l-2.17-.28c-.3-.05-.42-.16-.36-.32.21-1.5,1.02-2.72,2.41-3.66s3.14-1.41,5.23-1.41c2.41,0,4.28.62,5.59,1.85v.02ZM96.12,186.54c1.15-.79,1.73-1.86,1.73-3.2v-3.14c0-.11-.05-.16-.16-.16h-4.22c-1.77,0-3.19.36-4.26,1.09-1.07.72-1.61,1.73-1.61,3.02,0,1.18.41,2.07,1.23,2.67s1.88.9,3.2.9c1.58,0,2.95-.39,4.1-1.19h0Z" fill="#094e96"></path><path d="M120.9,189.45l-8.28-27.19-.04-.16c0-.27.15-.4.44-.4h5.07c.29,0,.48.13.56.4l5.35,19.63c.03.08.07.12.12.12s.09-.04.12-.12l5.27-19.63c.08-.27.27-.4.56-.4h4.95c.16,0,.28.05.36.16s.09.24.04.4l-8.41,27.19c-.08.27-.25.4-.52.4h-5.07c-.27,0-.44-.13-.52-.4h0Z" fill="#094e96"></path><path d="M139.9,189.72c-.09-.09-.14-.21-.14-.34v-27.19c0-.13.05-.25.14-.34s.21-.14.34-.14h4.71c.13,0,.25.05.34.14s.14.21.14.34v27.19c0,.13-.05.25-.14.34s-.21.14-.34.14h-4.71c-.13,0-.25-.05-.34-.14Z" fill="#094e96"></path><path d="M168.52,189.45l-1.21-3.94c-.05-.11-.12-.16-.2-.16h-9.9c-.08,0-.15.05-.2.16l-1.17,3.94c-.08.27-.26.4-.52.4h-5.11c-.16,0-.28-.05-.36-.14s-.09-.23-.04-.42l8.69-27.19c.08-.27.25-.4.52-.4h6.31c.27,0,.44.13.52.4l8.69,27.19c.03.05.04.12.04.2,0,.24-.15.36-.44.36h-5.11c-.27,0-.44-.13-.52-.4h0ZM158.62,180.97h7.08c.16,0,.21-.08.16-.24l-3.62-11.94c-.03-.11-.07-.15-.12-.14-.05,0-.09.06-.12.14l-3.54,11.94c-.03.16.03.24.16.24h0Z" fill="#094e96"></path><path d="M181.1,189.45l-8.28-27.19-.04-.16c0-.27.15-.4.44-.4h5.07c.29,0,.48.13.56.4l5.35,19.63c.03.08.07.12.12.12s.09-.04.12-.12l5.27-19.63c.08-.27.27-.4.56-.4h4.95c.16,0,.28.05.36.16s.09.24.04.4l-8.41,27.19c-.08.27-.25.4-.52.4h-5.07c-.27,0-.44-.13-.52-.4h0Z" fill="#094e96"></path><path d="M199.3,189.72c-.09-.09-.14-.21-.14-.34v-27.19c0-.13.05-.25.14-.34s.21-.14.34-.14h4.71c.13,0,.25.05.34.14s.14.21.14.34v27.19c0,.13-.05.25-.14.34s-.21.14-.34.14h-4.71c-.13,0-.25-.05-.34-.14Z" fill="#094e96"></path><path d="M221.81,189.15c-1.61-.68-2.85-1.66-3.72-2.94-.87-1.27-1.31-2.76-1.31-4.44v-.89c0-.13.05-.25.14-.34s.21-.14.34-.14h4.59c.13,0,.25.05.34.14.09.1.14.21.14.34v.6c0,1.07.5,1.98,1.49,2.72s2.33,1.11,4.02,1.11c1.42,0,2.48-.3,3.18-.9s1.05-1.35,1.05-2.23c0-.64-.22-1.19-.64-1.63-.43-.44-1.01-.83-1.75-1.17s-1.91-.8-3.52-1.39c-1.8-.62-3.32-1.25-4.57-1.89s-2.29-1.52-3.14-2.63c-.84-1.11-1.27-2.49-1.27-4.12s.42-3.02,1.25-4.22c.83-1.21,1.98-2.13,3.46-2.78,1.47-.64,3.18-.97,5.11-.97,2.04,0,3.85.36,5.45,1.09,1.59.72,2.84,1.74,3.74,3.04.9,1.3,1.35,2.81,1.35,4.53v.6c0,.13-.05.25-.14.34s-.21.14-.34.14h-4.62c-.13,0-.25-.05-.34-.14s-.14-.21-.14-.34v-.32c0-1.13-.46-2.08-1.39-2.88-.92-.79-2.19-1.19-3.8-1.19-1.26,0-2.25.27-2.96.8-.71.54-1.06,1.27-1.06,2.21,0,.67.21,1.23.62,1.69.42.46,1.03.87,1.85,1.23s2.08.85,3.8,1.47c1.9.7,3.4,1.31,4.48,1.85,1.09.54,2.06,1.33,2.94,2.39s1.31,2.43,1.31,4.12c0,2.52-.92,4.51-2.77,5.97s-4.36,2.19-7.52,2.19c-2.14,0-4.02-.34-5.63-1.03h-.02Z" fill="#094e96"></path><path d="M244.69,188.41c-1.61-1.18-2.71-2.79-3.3-4.83-.38-1.26-.56-2.63-.56-4.1,0-1.58.19-3,.56-4.26.62-1.98,1.73-3.54,3.34-4.67s3.54-1.69,5.79-1.69,4.08.56,5.63,1.67c1.56,1.11,2.66,2.66,3.3,4.65.43,1.34.64,2.75.64,4.22s-.19,2.8-.56,4.06c-.59,2.09-1.68,3.73-3.28,4.93-1.6,1.19-3.52,1.79-5.77,1.79s-4.18-.59-5.79-1.77h0ZM252.73,184.51c.62-.54,1.06-1.27,1.33-2.21.21-.86.32-1.8.32-2.82,0-1.13-.11-2.08-.32-2.86-.29-.91-.75-1.62-1.37-2.13-.62-.51-1.37-.76-2.25-.76s-1.67.25-2.27.76c-.6.51-1.04,1.22-1.31,2.13-.21.64-.32,1.59-.32,2.86s.09,2.14.28,2.82c.27.94.72,1.67,1.35,2.21.63.54,1.4.8,2.31.8s1.64-.27,2.25-.8Z" fill="#094e96"></path><path d="M263.89,189.72c-.09-.09-.14-.21-.14-.34v-27.19c0-.13.05-.25.14-.34s.21-.14.34-.14h4.71c.13,0,.25.05.34.14s.14.21.14.34v27.19c0,.13-.05.25-.14.34s-.21.14-.34.14h-4.71c-.13,0-.25-.05-.34-.14Z" fill="#094e96"></path><path d="M285.77,169.32c.09-.09.21-.14.34-.14h4.7c.13,0,.25.05.34.14s.14.21.14.34v19.71c0,.13-.05.25-.14.34s-.21.14-.34.14h-4.7c-.13,0-.25-.05-.34-.14s-.14-.21-.14-.34v-1.37c0-.08-.03-.13-.08-.14s-.11.02-.16.1c-1.07,1.45-2.74,2.17-4.99,2.17-2.04,0-3.71-.62-5.03-1.85s-1.97-2.96-1.97-5.19v-13.43c0-.13.05-.25.14-.34.09-.09.21-.14.34-.14h4.67c.13,0,.25.05.34.14s.14.21.14.34v12.03c0,1.07.29,1.94.87,2.61s1.37,1.01,2.39,1.01c.91,0,1.66-.27,2.25-.82s.95-1.27,1.09-2.15v-12.67c0-.13.05-.25.14-.34h0Z" fill="#094e96"></path><path d="M307.21,173.59c-.09.09-.21.14-.34.14h-3.86c-.13,0-.2.07-.2.2v8.53c0,.89.18,1.54.54,1.97.36.43.95.64,1.75.64h1.33c.13,0,.25.05.34.14.09.1.14.21.14.34v3.82c0,.29-.16.47-.48.52-1.13.05-1.93.08-2.41.08-2.22,0-3.89-.37-4.99-1.11-1.1-.74-1.66-2.13-1.69-4.16v-10.78c0-.13-.07-.2-.2-.2h-2.29c-.13,0-.25-.05-.34-.14s-.14-.21-.14-.34v-3.58c0-.13.05-.25.14-.34s.21-.14.34-.14h2.29c.13,0,.2-.07.2-.2v-4.79c0-.13.05-.25.14-.34s.21-.14.34-.14h4.5c.13,0,.25.05.34.14s.14.21.14.34v4.79c0,.13.07.2.2.2h3.86c.13,0,.25.05.34.14s.14.21.14.34v3.58c0,.13-.05.25-.14.34h0Z" fill="#094e96"></path><path d="M311.55,165.94c-.6-.6-.9-1.36-.9-2.27s.29-1.7.89-2.29,1.35-.89,2.29-.89,1.7.3,2.29.89.89,1.36.89,2.29-.3,1.67-.9,2.27-1.36.91-2.27.91-1.67-.3-2.27-.91h-.02ZM311.07,189.72c-.09-.09-.14-.21-.14-.34v-19.75c0-.13.05-.25.14-.34.09-.09.21-.14.34-.14h4.7c.13,0,.25.05.34.14s.14.21.14.34v19.75c0,.13-.05.25-.14.34s-.21.14-.34.14h-4.7c-.13,0-.25-.05-.34-.14Z" fill="#094e96"></path><path d="M324.36,188.41c-1.61-1.18-2.71-2.79-3.3-4.83-.38-1.26-.56-2.63-.56-4.1,0-1.58.19-3,.56-4.26.62-1.98,1.73-3.54,3.34-4.67s3.54-1.69,5.79-1.69,4.08.56,5.63,1.67c1.56,1.11,2.66,2.66,3.3,4.65.43,1.34.64,2.75.64,4.22s-.19,2.8-.56,4.06c-.59,2.09-1.68,3.73-3.28,4.93-1.6,1.19-3.52,1.79-5.77,1.79s-4.18-.59-5.79-1.77h0ZM332.41,184.51c.62-.54,1.06-1.27,1.33-2.21.21-.86.32-1.8.32-2.82,0-1.13-.11-2.08-.32-2.86-.29-.91-.75-1.62-1.37-2.13-.62-.51-1.37-.76-2.25-.76s-1.67.25-2.27.76c-.6.51-1.04,1.22-1.31,2.13-.21.64-.32,1.59-.32,2.86s.09,2.14.28,2.82c.27.94.72,1.67,1.35,2.21.63.54,1.4.8,2.31.8s1.64-.27,2.25-.8Z" fill="#094e96"></path><path d="M359.4,170.83c1.31,1.31,1.97,3.1,1.97,5.35v13.19c0,.13-.05.25-.14.34s-.21.14-.34.14h-4.71c-.13,0-.25-.05-.34-.14s-.14-.21-.14-.34v-12.03c0-1.07-.3-1.94-.9-2.61s-1.4-1-2.39-1-1.79.34-2.39,1c-.6.67-.9,1.54-.9,2.61v12.03c0,.13-.05.25-.14.34s-.21.14-.34.14h-4.71c-.13,0-.25-.05-.34-.14s-.14-.21-.14-.34v-19.71c0-.13.05-.25.14-.34s.21-.14.34-.14h4.71c.13,0,.25.05.34.14s.14.21.14.34v1.41c0,.08.03.13.08.16s.09,0,.12-.04c1.1-1.55,2.74-2.33,4.91-2.33s3.87.66,5.19,1.97h-.02Z" fill="#094e96"></path><path d="M368.97,189.37c-1.34-.51-2.38-1.22-3.12-2.13s-1.11-1.94-1.11-3.1v-.4c0-.13.05-.25.14-.34s.21-.14.34-.14h4.46c.13,0,.25.05.34.14s.14.21.14.34v.04c0,.59.33,1.09.99,1.51s1.48.62,2.47.62c.91,0,1.65-.18,2.21-.54s.84-.81.84-1.35c0-.48-.24-.85-.72-1.09s-1.27-.5-2.37-.76c-1.26-.32-2.25-.63-2.98-.93-1.72-.59-3.08-1.31-4.1-2.17-1.02-.86-1.53-2.09-1.53-3.7,0-1.98.77-3.56,2.31-4.73s3.59-1.75,6.13-1.75c1.72,0,3.22.27,4.5.82,1.29.55,2.29,1.32,3,2.31.71.99,1.07,2.12,1.07,3.38,0,.13-.05.25-.14.34-.09.1-.21.14-.34.14h-4.3c-.13,0-.25-.05-.34-.14s-.14-.21-.14-.34c0-.59-.3-1.09-.9-1.49s-1.4-.6-2.39-.6c-.89,0-1.61.16-2.17.48-.56.32-.84.76-.84,1.33s.27.94.82,1.21c.55.27,1.47.55,2.76.84.29.08.63.17,1.01.26.37.09.78.21,1.21.34,1.9.56,3.4,1.29,4.5,2.17s1.65,2.17,1.65,3.86c0,1.98-.78,3.53-2.35,4.65-1.57,1.11-3.68,1.67-6.33,1.67-1.8,0-3.37-.26-4.71-.76h-.01Z" fill="#094e96"></path><path d="M397.5,188.67c-1.38-1.01-2.33-2.37-2.83-4.08-.35-1.18-.52-2.84-.52-4.99,0-1.93.17-3.57.52-4.91.48-1.66,1.42-3,2.82-4,1.39-1.01,3.06-1.51,4.99-1.51s3.65.5,5.09,1.49c1.43.99,2.37,2.23,2.8,3.7.13.48.21.89.24,1.21v.08c0,.19-.12.31-.36.36l-2.01.28h-.08c-.19,0-.31-.12-.36-.36l-.12-.6c-.24-1.02-.83-1.88-1.77-2.59-.94-.71-2.08-1.07-3.42-1.07s-2.46.36-3.36,1.07-1.48,1.66-1.75,2.83c-.24,1.02-.36,2.37-.36,4.06s.12,3.14.36,4.1c.27,1.21.85,2.17,1.75,2.88s2.02,1.07,3.36,1.07,2.45-.34,3.4-1.03c.95-.68,1.55-1.56,1.79-2.63v-.16l.04-.16c.03-.27.19-.37.48-.32l1.97.32c.27.05.39.2.36.44l-.16.8c-.4,1.56-1.33,2.82-2.78,3.78-1.45.97-3.15,1.45-5.11,1.45s-3.59-.5-4.97-1.51h-.01Z" fill="#094e96"></path><path d="M418.36,188.69c-1.39-.99-2.36-2.36-2.9-4.1-.38-1.23-.56-2.88-.56-4.95s.19-3.7.56-4.91c.51-1.72,1.46-3.07,2.85-4.06,1.39-.99,3.08-1.49,5.07-1.49s3.55.5,4.93,1.49,2.33,2.33,2.84,4.02c.37,1.15.56,2.8.56,4.95s-.19,3.82-.56,4.95c-.51,1.74-1.45,3.11-2.84,4.1-1.38.99-3.04,1.49-4.97,1.49s-3.59-.5-4.99-1.49h0ZM426.64,186.62c.91-.71,1.53-1.67,1.85-2.88.24-.97.36-2.32.36-4.06s-.11-3.12-.32-4.06c-.32-1.21-.95-2.16-1.87-2.88-.93-.71-2.05-1.07-3.36-1.07s-2.43.36-3.34,1.07-1.53,1.67-1.85,2.88c-.21.94-.32,2.29-.32,4.06s.11,3.12.32,4.06c.29,1.21.9,2.17,1.83,2.88.92.71,2.06,1.07,3.4,1.07s2.39-.35,3.3-1.07h0Z" fill="#094e96"></path><path d="M462.86,171.03c1.17,1.21,1.75,2.85,1.75,4.95v13.47c0,.27-.13.4-.4.4h-2.01c-.27,0-.4-.13-.4-.4v-12.91c0-1.47-.42-2.65-1.27-3.52-.84-.87-1.95-1.31-3.32-1.31s-2.57.43-3.44,1.29-1.31,2.01-1.31,3.46v12.99c0,.27-.13.4-.4.4h-2.05c-.27,0-.4-.13-.4-.4v-12.91c0-1.47-.42-2.65-1.25-3.52-.83-.87-1.94-1.31-3.34-1.31s-2.55.43-3.4,1.29c-.84.86-1.27,2.01-1.27,3.46v12.99c0,.27-.13.4-.4.4h-2.05c-.27,0-.4-.13-.4-.4v-19.55c0-.27.13-.4.4-.4h2.05c.27,0,.4.13.4.4v1.61c0,.05.02.09.06.1.04,0,.09,0,.14-.06.59-.78,1.35-1.36,2.27-1.75.92-.39,1.95-.58,3.08-.58,1.39,0,2.59.28,3.58.84s1.74,1.38,2.25,2.45c.05.13.12.13.2,0,.59-1.1,1.42-1.92,2.49-2.47,1.07-.55,2.29-.82,3.66-.82,2.01,0,3.6.6,4.77,1.81h0Z" fill="#094e96"></path><path d="M487.17,179.68c0,2.14-.18,3.81-.52,4.99-.48,1.72-1.36,3.06-2.63,4.04s-2.88,1.47-4.81,1.47c-1.05,0-2.01-.21-2.9-.62-.88-.42-1.62-1.01-2.21-1.79-.05-.05-.1-.07-.14-.06-.04,0-.06.05-.06.1v9.45c0,.27-.13.4-.4.4h-2.05c-.27,0-.4-.13-.4-.4v-27.35c0-.27.13-.4.4-.4h2.05c.27,0,.4.13.4.4v1.69c0,.05.02.09.06.1.04,0,.09,0,.14-.06.59-.78,1.32-1.38,2.19-1.81s1.84-.64,2.92-.64c1.88,0,3.45.48,4.73,1.45,1.27.97,2.15,2.28,2.63,3.94.4,1.29.6,2.99.6,5.11h0ZM484.06,182.76c.15-.74.22-1.76.22-3.08s-.05-2.25-.16-2.96-.3-1.35-.56-1.91c-.32-.97-.89-1.73-1.71-2.29-.82-.56-1.79-.84-2.92-.84s-1.97.28-2.69.84-1.26,1.31-1.61,2.25c-.24.54-.42,1.17-.52,1.89-.11.72-.16,1.73-.16,3.02s.05,2.3.16,3.04c.11.74.29,1.39.56,1.95.32.91.85,1.64,1.59,2.19s1.62.82,2.64.82c1.07,0,2-.27,2.79-.81s1.36-1.25,1.71-2.13c.29-.59.52-1.25.66-1.99h0Z" fill="#094e96"></path><path d="M505.59,171.03c1.31,1.23,1.97,2.87,1.97,4.91v13.51c0,.27-.13.4-.4.4h-2.05c-.27,0-.4-.13-.4-.4v-1.65c0-.05-.02-.09-.06-.12s-.09,0-.14.04c-.67.81-1.54,1.42-2.61,1.83-1.07.42-2.27.62-3.58.62-1.9,0-3.5-.48-4.79-1.45s-1.93-2.44-1.93-4.42.73-3.6,2.19-4.77,3.49-1.75,6.09-1.75h4.67c.11,0,.16-.05.16-.16v-1.53c0-1.37-.38-2.45-1.15-3.24s-1.95-1.19-3.56-1.19c-1.29,0-2.33.25-3.14.74s-1.3,1.19-1.49,2.07c-.08.27-.24.39-.48.36l-2.17-.28c-.3-.05-.42-.16-.36-.32.21-1.5,1.02-2.72,2.41-3.66s3.14-1.41,5.23-1.41c2.41,0,4.28.62,5.59,1.85v.02ZM502.98,186.54c1.15-.79,1.73-1.86,1.73-3.2v-3.14c0-.11-.05-.16-.16-.16h-4.22c-1.77,0-3.19.36-4.26,1.09-1.07.72-1.61,1.73-1.61,3.02,0,1.18.41,2.07,1.23,2.67s1.88.9,3.2.9c1.58,0,2.95-.39,4.1-1.19h-.01Z" fill="#094e96"></path><path d="M527.09,171.11c1.27,1.26,1.91,2.95,1.91,5.07v13.27c0,.27-.13.4-.4.4h-2.05c-.27,0-.4-.13-.4-.4v-12.71c0-1.47-.45-2.68-1.35-3.62-.9-.94-2.06-1.41-3.48-1.41s-2.67.46-3.58,1.37-1.37,2.11-1.37,3.58v12.79c0,.27-.13.4-.4.4h-2.05c-.27,0-.4-.13-.4-.4v-19.55c0-.27.13-.4.4-.4h2.05c.27,0,.4.13.4.4v1.73c0,.05.02.09.06.12s.07,0,.1-.04c1.18-1.66,2.99-2.49,5.43-2.49,2.14,0,3.85.63,5.13,1.89h0Z" fill="#094e96"></path><path d="M533.63,197.5v-1.61c0-.27.13-.4.4-.4h.16c1.05-.03,1.86-.18,2.43-.46.58-.28,1.07-.8,1.49-1.57.42-.76.86-1.92,1.35-3.48.05-.11.05-.19,0-.24l-6.8-19.79-.04-.16c0-.19.12-.28.36-.28h2.13c.24,0,.4.11.48.32l5.23,16.25c.03.05.07.08.12.08s.09-.03.12-.08l5.15-16.25c.08-.21.24-.32.48-.32h2.09c.29,0,.4.15.32.44l-7.44,21.68c-.64,1.8-1.25,3.12-1.81,3.98s-1.27,1.45-2.11,1.79c-.84.34-2.03.5-3.56.5h-.28c-.19,0-.28-.13-.28-.4h.01Z" fill="#094e96"></path><g><path d="M46.2,35.65c-.53,0-1.07-.02-1.61-.07-9.28-.85-16.14-9.18-15.31-18.58.8-8.65,8.09-15.18,16.95-15.18.55,0,1.1.03,1.65.08,9.18.87,15.96,9.13,15.11,18.4-.98,8.88-8.05,15.35-16.79,15.35h0Z" fill="url(#linear-gradient)"></path><path d="M46.23,3.63c.49,0,.99.02,1.48.07,8.18.78,14.22,8.13,13.48,16.4-.9,7.96-7.2,13.74-14.99,13.74-.48,0-.96-.02-1.44-.07-8.28-.76-14.41-8.21-13.67-16.6.71-7.59,7.36-13.54,15.14-13.54M46.23.01C36.6.01,28.37,7.23,27.48,16.84c-.92,10.36,6.59,19.59,16.95,20.54.6.05,1.19.08,1.77.08,9.6,0,17.51-7.21,18.6-17C65.75,10.07,58.07,1.04,48.05.09c-.61-.06-1.22-.09-1.82-.09h0Z" fill="#0c4f96"></path></g><g><path d="M47.81,170.66c-2.52,0-4.52-.79-6.12-2.41-9.53-9.7-.61-34.72,8.01-58.91,8.83-24.78,17.95-50.34,7.45-60.57,7.77,1.57,12.99,4.82,15.92,9.88,7.46,12.87-1.35,34.97-9.86,56.34-3.62,9.09-7.04,17.67-9.1,25.29-1.95,6.89-2,11.25-.14,13.71,1.08,1.43,2.8,2.16,5.11,2.16,5.56,0,15.04-4.23,28.9-12.91-8.35,8.62-27.96,27.41-40.18,27.41h.01Z" fill="url(#linear-gradient-2)"></path><path d="M59.17,49.98c6.37,1.67,10.73,4.64,13.28,9.03,7.29,12.57-1.85,35.49-9.91,55.71-3.63,9.11-7.06,17.71-9.12,25.36-2.02,7.14-2.03,11.7-.03,14.35,1.23,1.62,3.14,2.45,5.69,2.45,1.98,0,7.4,0,24.19-9.92-9.51,9.3-25.21,22.97-35.46,22.97-2.32,0-4.15-.72-5.6-2.19-9.21-9.38-.37-34.18,8.17-58.16,4.68-13.13,9.52-26.7,11.4-37.84,1.67-9.91.82-17.09-2.61-21.76M54.44,47.57c26.15,16.17-33.66,100.42-13.26,121.19,1.81,1.83,4.07,2.62,6.64,2.62,16.29,0,44.69-31.89,44.69-31.89-17.31,11.29-27.73,15.94-33.42,15.94-6.45,0-6.82-5.96-4.27-14.96,8.86-32.89,44.42-86.55-.37-92.91h0Z" fill="#e87826"></path></g><g><path d="M35.63,170.4c-8.37-1.26-13.96-4.38-17.04-9.5-7.64-12.7,2.01-36.13,10.52-56.81,3.8-9.22,7.38-17.93,9.48-25.52,1.87-6.87,1.88-11.2.02-13.62-1.08-1.42-2.8-2.14-5.09-2.14-5.55,0-15.07,4.25-29.02,12.98,8.39-8.66,28.15-27.61,40.41-27.61,2.51,0,4.51.78,6.1,2.4,9.47,9.74.56,35.11-8.05,59.64-9.11,25.95-17.75,50.55-7.33,60.19h0Z" fill="url(#linear-gradient-3)"></path><path d="M44.92,48.9c2.31,0,4.14.71,5.58,2.18,9.16,9.42.33,34.57-8.21,58.9-4.62,13.15-9.39,26.75-11.25,37.81-1.67,9.92-.8,17.03,2.66,21.54-7.02-1.4-11.78-4.3-14.48-8.8-7.45-12.39,2.12-35.64,10.57-56.16,3.8-9.24,7.4-17.97,9.51-25.61,1.93-7.1,1.9-11.63-.1-14.25-1.23-1.61-3.13-2.42-5.66-2.42-1.98,0-7.39,0-24.32,10,9.55-9.36,25.41-23.18,35.71-23.18M44.92,47.45C28.6,47.45,0,79.53,0,79.53c17.4-11.33,27.83-15.99,33.53-15.99,6.4,0,6.8,5.89,4.37,14.84-9.03,32.69-46.73,88.48.37,93.08-25.78-15.19,33.46-100.62,13.26-121.39-1.8-1.83-4.06-2.61-6.62-2.61h0Z" fill="#0c4f96"></path></g><path d="M87.21,70.38c-1.32,1.36-2,2.96-2,4.89v58.98h13.61v-65.87h-6.72c-1.93,0-3.57.64-4.89,2Z" fill="#0f4f97"></path><path d="M133.51,101.67v26.04c0,1.93.61,3.47,1.82,4.68,1.21,1.21,2.79,1.82,4.68,1.82h6.72v-29.86c0-8.93-2.36-14.86-7.07-17.79-4.72-2.93-9.89-4.39-15.5-4.39-5.5.25-10.5,1.86-15.04,4.79s-6.79,8.75-6.79,17.43v29.86h13.4v-32.54c0-3.07.89-5.29,2.68-6.72,1.79-1.39,3.82-2.11,6.11-2.11s4.36.71,6.22,2.11c1.86,1.39,2.79,3.64,2.79,6.68h-.02Z" fill="#0f4f97"></path><path d="M196.77,118.53h-9.57c-1.54,0-2.71.32-3.54.96-.82.64-1.32,1.14-1.43,1.54l-1.04,1.04c-.32.32-.68.54-1.07.68-1.54.89-3.39,1.36-5.54,1.36-3.32,0-5.82-1.04-7.47-3.07-1.79-1.93-2.75-4.86-2.86-8.82h33.11c.14-.25.18-.71.18-1.32v-2.11c0-8.43-2.04-15-6.11-19.72-4.22-4.61-10.14-6.89-17.79-6.89s-12.97,2.36-17.04,7.07c-3.97,4.61-5.93,10.97-5.93,19.15s2.04,15.11,6.11,19.72c4.07,4.72,9.75,7.07,17.04,7.07,6,0,10.97-1.46,14.93-4.39,3.89-2.79,6.57-6.89,8-12.25l.02-.02ZM167.09,95.95c1.79-1.79,4.07-2.68,6.89-2.68,3.07,0,5.43.89,7.07,2.68,1.54,1.64,2.43,4.22,2.68,7.64h-19.54c.14-3.32,1.11-5.86,2.89-7.64h.01Z" fill="#0f4f97"></path><path d="M215.99,107.99c0-3.82.89-6.64,2.68-8.43s4.54-2.68,8.22-2.68h4.39v-13.57h-1.93c-3.43,0-6.79.46-10.04,1.36-3.25.89-6.11,2.29-8.54,4.22-2.57,2.04-4.57,4.75-6.04,8.14-1.46,3.39-2.21,7.57-2.21,12.54v24.68h13.4v-26.26h.07,0Z" fill="#0f4f97"></path><path d="M244.5,134.03c4.93.39,9.47.43,13.68.18h0v-9.97h-4.04c-2.57,0-3.82-1.07-3.82-3.25v-28.33h1.36c1.79,0,3.32-.61,4.61-1.82,1.29-1.21,1.93-2.79,1.93-4.68v-2.68h-7.86v-8.61c0-1.79-.64-3.32-1.93-4.61-1.29-1.29-2.75-1.93-4.39-1.93h-6.89v56.3c-.04,5.89,2.43,9.04,7.36,9.39h0Z" fill="#0f4f97"></path><path d="M270.29,68.38h-6.89v10.54h13.4v-4.04c0-1.79-.64-3.32-1.93-4.61-1.25-1.25-2.79-1.89-4.57-1.89h0Z" fill="#0f4f97"></path><path d="M270.29,83.31h-6.89v50.94h13.4v-44.44c0-1.79-.64-3.32-1.93-4.61-1.25-1.25-2.79-1.89-4.57-1.89h0Z" fill="#0f4f97"></path><path d="M319.48,125.89c1.86-2.86,2.79-6.86,2.79-11.97v-17.4c0-4.61-1.86-8.18-5.57-10.72-3.57-2.43-8.93-3.64-16.07-3.64-6.39,0-11.29,1.46-14.75,4.39-3.07,2.57-4.86,5.82-5.36,9.75h12.86c.64-1.39,1.64-2.36,3.07-2.86s3-.75,4.79-.75c1.64,0,3.47.29,5.47.86,1.96.57,2.96,1.82,2.96,3.75,0,2.57-2.82,4.22-8.43,4.97-1.14.14-2.18.29-3.07.46s-1.64.29-2.29.29c-4.86.75-8.82,2.29-11.97,4.61-3.14,2.29-4.68,6.14-4.68,11.5,0,5.75,1.71,9.86,5.18,12.36,3.43,2.5,7.47,3.75,12.07,3.75,2.29,0,4.93-.18,7.93-.46,3-.32,5.82-1.18,8.5-2.57,2.54-1.36,4.72-3.43,6.57-6.32h0ZM309.79,113.35c0,3.57-1.04,6.39-3.07,8.43s-4.86,3.07-8.43,3.07c-2.18,0-3.82-.5-4.97-1.54-1.14-1.14-1.71-2.68-1.71-4.61,0-1.39.46-2.82,1.32-4.22,1.04-1.04,2.68-1.86,4.97-2.5l4.39-.96c3.18-.75,5.68-1.61,7.47-2.5h0v4.82h.04-.01Z" fill="#0f4f97"></path><path d="M341.09,74.7c0-1.79-.64-3.29-1.93-4.5-1.29-1.21-2.82-1.82-4.61-1.82h-6.89v65.87h13.4v-59.55h.04-.01Z" fill="#0f4f97"></path><path d="M369.16,68.38h-6.72c-1.93,0-3.54.68-4.89,2-1.36,1.36-2,2.96-2,4.89v58.98h45.76v-12.25h-32.15v-53.62Z" fill="#e87826"></path><path d="M442.75,85.77c-3.57-2.43-8.93-3.64-16.07-3.64-6.39,0-11.29,1.46-14.75,4.39-3.07,2.57-4.86,5.82-5.36,9.75h12.82c.64-1.39,1.64-2.36,3.07-2.86,1.39-.5,3-.75,4.79-.75,1.64,0,3.46.29,5.47.86,1.96.57,2.96,1.82,2.96,3.75,0,2.57-2.82,4.22-8.43,4.97-1.14.14-2.18.29-3.07.46s-1.68.29-2.29.29c-4.86.75-8.86,2.29-11.97,4.61-3.14,2.29-4.68,6.14-4.68,11.5,0,5.75,1.71,9.86,5.18,12.36,3.43,2.5,7.47,3.75,12.07,3.75,2.29,0,4.93-.18,7.93-.46,3-.32,5.82-1.18,8.5-2.57,2.57-1.29,4.75-3.36,6.61-6.22s2.79-6.86,2.79-11.97v-17.43c0-4.64-1.86-8.22-5.57-10.79h0ZM435.86,113.35c0,3.57-1.04,6.39-3.07,8.43-2.04,2.04-4.86,3.07-8.43,3.07-2.18,0-3.82-.5-4.97-1.54-1.14-1.14-1.71-2.68-1.71-4.61,0-1.39.46-2.82,1.36-4.22,1.04-1.04,2.68-1.86,4.97-2.5l4.39-.96c3.18-.75,5.68-1.61,7.47-2.5h0v4.82h-.01Z" fill="#e87826"></path><path d="M480.72,82.16c-3.32,0-6.11.64-8.43,1.93-2.68,1.54-4.72,3.5-6.14,5.93v-15.32c0-1.79-.64-3.32-1.93-4.61-1.29-1.29-2.82-1.93-4.61-1.93h-6.5v43.87c0,9.07,2.61,15.18,7.86,18.4,5.22,3.18,10.93,4.79,17.04,4.79,3.18,0,6.43-.54,9.68-1.64,3.25-1.07,5.82-2.82,7.75-5.25,3.82-4.97,5.75-11.43,5.75-19.33s-1.93-14.36-5.75-19.33c-3.79-5.04-8.72-7.5-14.72-7.5h0ZM485.15,120.07c-1.93,2.68-4.68,4.04-8.22,4.04s-6.14-1.32-8.04-4.04c-1.79-2.43-2.68-6.32-2.68-11.68,0-4.61.96-8.22,2.86-10.9,1.93-2.54,4.64-3.82,8.22-3.82,3.32,0,5.93,1.36,7.86,4.04,1.93,2.57,2.86,6.14,2.86,10.72,0,5.07-.96,8.97-2.86,11.65h0Z" fill="#e87826"></path><path d="M546.88,108.74c-2.54-2.18-7.07-4.07-13.57-5.75-.65-.14-2.72-.54-3.64-.75-6.64-1.39-9.97-3.14-9.97-5.18,0-1.54.57-2.68,1.71-3.47,1.29-.75,3.18-1.14,5.75-1.14s4.79.57,6.32,1.71c.7.49.82.64,1.54,1.54,1.29,2.18,3.11,3.25,5.54,3.25h8.22c-.25-5.11-2.21-9.25-5.93-12.43-3.97-2.93-9.25-4.39-15.9-4.39-6.14,0-11.11,1.46-14.93,4.39-3.72,3.18-5.54,7.22-5.54,12.07,0,3.82,1.29,6.89,3.82,9.18,2.29,2.29,6.82,4.29,13.61,5.93,1.14.39,2.86.75,5.18,1.14,5.36,1.14,8.04,2.86,8.04,5.18,0,1.54-.75,2.75-2.29,3.64-1.64.89-3.64,1.32-5.93,1.32-3.18,0-5.75-.64-7.64-1.93-1.79-1.29-2.75-3.18-2.86-5.75h-13v.57c0,5.61,1.86,9.89,5.54,12.82,3.57,2.93,9,4.39,16.29,4.39s13.4-1.39,17.22-4.22c4.07-3.07,6.11-7.39,6.11-13-.07-3.75-1.29-6.82-3.68-9.14v.02Z" fill="#e87826"></path></svg>