<svg width="750" height="81" viewBox="0 0 750 81" fill="none" xmlns="http://www.w3.org/2000/svg">
<rect x="5" y="20" width="20" height="20" fill="white"/>
<path d="M0 27H30" stroke="white" stroke-width="7"/>
<path d="M0 37H30" stroke="white" stroke-width="7"/>
<rect x="5" width="20" height="20" fill="white"/>
<path d="M0 7H30" stroke="white" stroke-width="7"/>
<path d="M0 17H30" stroke="white" stroke-width="7"/>
<rect x="25" width="20" height="20" fill="white"/>
<path d="M20 7H50" stroke="white" stroke-width="7"/>
<path d="M20 17H50" stroke="white" stroke-width="7"/>
<rect x="45" y="20" width="20" height="20" fill="white"/>
<path d="M40 27H70" stroke="white" stroke-width="7"/>
<path d="M40 37H70" stroke="white" stroke-width="7"/>
<rect x="45" width="20" height="20" fill="white"/>
<path d="M40 7H70" stroke="white" stroke-width="7"/>
<path d="M40 17H70" stroke="white" stroke-width="7"/>
<rect x="85" y="20" width="20" height="20" fill="white"/>
<path d="M80 27H110" stroke="white" stroke-width="7"/>
<path d="M80 37H110" stroke="white" stroke-width="7"/>
<rect x="85" width="20" height="20" fill="white"/>
<path d="M80 7H110" stroke="white" stroke-width="7"/>
<path d="M80 17H110" stroke="white" stroke-width="7"/>
<rect x="85" y="40" width="20" height="20" fill="white"/>
<path d="M80 47H110" stroke="white" stroke-width="7"/>
<path d="M80 57H110" stroke="white" stroke-width="7"/>
<rect x="105" y="40" width="20" height="20" fill="white"/>
<path d="M100 47H130" stroke="white" stroke-width="7"/>
<path d="M100 57H130" stroke="white" stroke-width="7"/>
<rect x="125" y="60" width="20" height="20" fill="white"/>
<path d="M120 67H150" stroke="white" stroke-width="7"/>
<path d="M120 77H150" stroke="white" stroke-width="7"/>
<rect x="125" y="20" width="20" height="20" fill="white"/>
<path d="M120 27H150" stroke="white" stroke-width="7"/>
<path d="M120 37H150" stroke="white" stroke-width="7"/>
<rect x="105" width="20" height="20" fill="white"/>
<path d="M100 7H130" stroke="white" stroke-width="7"/>
<path d="M100 17H130" stroke="white" stroke-width="7"/>
<rect x="125" width="20" height="20" fill="white"/>
<path d="M120 7H150" stroke="white" stroke-width="7"/>
<path d="M120 17H150" stroke="white" stroke-width="7"/>
<rect x="165" y="20" width="20" height="20" fill="white"/>
<path d="M160 27H190" stroke="white" stroke-width="7"/>
<path d="M160 37H190" stroke="white" stroke-width="7"/>
<rect x="605" y="20" width="20" height="20" fill="white"/>
<path d="M600 27H630" stroke="white" stroke-width="7"/>
<path d="M600 37H630" stroke="white" stroke-width="7"/>
<rect x="685" y="20" width="20" height="20" fill="white"/>
<path d="M680 27H710" stroke="white" stroke-width="7"/>
<path d="M680 37H710" stroke="white" stroke-width="7"/>
<rect x="165" width="20" height="20" fill="white"/>
<path d="M160 7H190" stroke="white" stroke-width="7"/>
<path d="M160 17H190" stroke="white" stroke-width="7"/>
<rect x="605" width="20" height="20" fill="white"/>
<path d="M600 7H630" stroke="white" stroke-width="7"/>
<path d="M600 17H630" stroke="white" stroke-width="7"/>
<rect x="685" width="20" height="20" fill="white"/>
<path d="M680 7H710" stroke="white" stroke-width="7"/>
<path d="M680 17H715" stroke="white" stroke-width="7"/>
<rect x="185" width="20" height="20" fill="white"/>
<path d="M180 7H210" stroke="white" stroke-width="7"/>
<path d="M180 17H210" stroke="white" stroke-width="7"/>
<rect x="625" width="20" height="20" fill="white"/>
<path d="M620 7H650" stroke="white" stroke-width="7"/>
<path d="M620 17H650" stroke="white" stroke-width="7"/>
<rect x="705" y="20" width="20" height="20" fill="white"/>
<path d="M700 27H730" stroke="white" stroke-width="7"/>
<path d="M700 37H730" stroke="white" stroke-width="7"/>
<rect x="205" y="20" width="20" height="20" fill="white"/>
<path d="M200 27H230" stroke="white" stroke-width="7"/>
<path d="M200 37H230" stroke="white" stroke-width="7"/>
<rect x="645" y="20" width="20" height="20" fill="white"/>
<path d="M640 27H670" stroke="white" stroke-width="7"/>
<path d="M640 37H670" stroke="white" stroke-width="7"/>
<rect x="725" y="20" width="20" height="20" fill="white"/>
<path d="M720 27H750" stroke="white" stroke-width="7"/>
<path d="M720 37H750" stroke="white" stroke-width="7"/>
<rect x="205" width="20" height="20" fill="white"/>
<path d="M200 7H230" stroke="white" stroke-width="7"/>
<path d="M200 17H230" stroke="white" stroke-width="7"/>
<rect x="645" width="20" height="20" fill="white"/>
<path d="M640 7H670" stroke="white" stroke-width="7"/>
<path d="M640 17H670" stroke="white" stroke-width="7"/>
<rect x="725" width="20" height="20" fill="white"/>
<path d="M720 7H750" stroke="white" stroke-width="7"/>
<path d="M720 17H750" stroke="white" stroke-width="7"/>
<rect x="245" width="20" height="20" fill="white"/>
<path d="M240 7H270" stroke="white" stroke-width="7"/>
<path d="M240 17H270" stroke="white" stroke-width="7"/>
<rect x="325" width="20" height="20" fill="white"/>
<path d="M320 7H350" stroke="white" stroke-width="7"/>
<path d="M320 17H350" stroke="white" stroke-width="7"/>
<rect x="405" width="20" height="20" fill="white"/>
<path d="M400 7H430" stroke="white" stroke-width="7"/>
<path d="M400 17H430" stroke="white" stroke-width="7"/>
<rect x="485" width="20" height="20" fill="white"/>
<path d="M480 7H510" stroke="white" stroke-width="7"/>
<path d="M480 17H510" stroke="white" stroke-width="7"/>
<rect x="265" width="20" height="20" fill="white"/>
<path d="M260 7H290" stroke="white" stroke-width="7"/>
<path d="M260 17H290" stroke="white" stroke-width="7"/>
<rect x="345" width="20" height="20" fill="white"/>
<path d="M340 7H370" stroke="white" stroke-width="7"/>
<path d="M340 17H370" stroke="white" stroke-width="7"/>
<rect x="425" width="20" height="20" fill="white"/>
<path d="M420 7H450" stroke="white" stroke-width="7"/>
<path d="M420 17H450" stroke="white" stroke-width="7"/>
<rect x="505" width="20" height="20" fill="white"/>
<path d="M500 7H530" stroke="white" stroke-width="7"/>
<path d="M500 17H530" stroke="white" stroke-width="7"/>
<rect x="565" width="20" height="20" fill="white"/>
<path d="M560 7H590" stroke="white" stroke-width="7"/>
<path d="M560 17H590" stroke="white" stroke-width="7"/>
<rect x="265" y="60" width="20" height="20" fill="white"/>
<path d="M260 67H290" stroke="white" stroke-width="7"/>
<path d="M260 77H290" stroke="white" stroke-width="7"/>
<rect x="345" y="60" width="20" height="20" fill="white"/>
<path d="M340 67H370" stroke="white" stroke-width="7"/>
<path d="M340 77H370" stroke="white" stroke-width="7"/>
<rect x="425" y="40" width="20" height="20" fill="white"/>
<path d="M420 47H450" stroke="white" stroke-width="7"/>
<path d="M420 57H450" stroke="white" stroke-width="7"/>
<rect x="505" y="40" width="20" height="20" fill="white"/>
<path d="M500 47H530" stroke="white" stroke-width="7"/>
<path d="M500 57H530" stroke="white" stroke-width="7"/>
<rect x="565" y="40" width="20" height="20" fill="white"/>
<path d="M560 47H590" stroke="white" stroke-width="7"/>
<path d="M560 57H590" stroke="white" stroke-width="7"/>
<rect x="505" y="20" width="20" height="20" fill="white"/>
<path d="M500 27H530" stroke="white" stroke-width="7"/>
<path d="M500 37H530" stroke="white" stroke-width="7"/>
<rect x="565" y="20" width="20" height="20" fill="white"/>
<path d="M560 27H590" stroke="white" stroke-width="7"/>
<path d="M560 37H590" stroke="white" stroke-width="7"/>
<rect x="505" y="60" width="20" height="20" fill="white"/>
<path d="M500 67H530" stroke="white" stroke-width="7"/>
<path d="M500 77H530" stroke="white" stroke-width="7"/>
<rect x="565" y="60" width="20" height="20" fill="white"/>
<path d="M560 67H590" stroke="white" stroke-width="7"/>
<path d="M560 77H590" stroke="white" stroke-width="7"/>
<rect x="285" width="20" height="20" fill="white"/>
<path d="M280 7H310" stroke="white" stroke-width="7"/>
<path d="M280 17H310" stroke="white" stroke-width="7"/>
<rect x="365" width="20" height="20" fill="white"/>
<path d="M360 7H390" stroke="white" stroke-width="7"/>
<path d="M360 17H390" stroke="white" stroke-width="7"/>
<rect x="445" width="20" height="20" fill="white"/>
<path d="M440 7H470" stroke="white" stroke-width="7"/>
<path d="M440 17H470" stroke="white" stroke-width="7"/>
<rect x="525" width="20" height="20" fill="white"/>
<path d="M520 7H550" stroke="white" stroke-width="7"/>
<path d="M520 17H550" stroke="white" stroke-width="7"/>
<rect x="285" y="60" width="20" height="20" fill="white"/>
<path d="M280 67H310" stroke="white" stroke-width="7"/>
<path d="M280 77H310" stroke="white" stroke-width="7"/>
<rect x="365" y="60" width="20" height="20" fill="white"/>
<path d="M360 67H390" stroke="white" stroke-width="7"/>
<path d="M360 77H390" stroke="white" stroke-width="7"/>
<rect x="445" y="40" width="20" height="20" fill="white"/>
<path d="M440 47H470" stroke="white" stroke-width="7"/>
<path d="M440 57H470" stroke="white" stroke-width="7"/>
<rect x="445" y="20" width="20" height="20" fill="white"/>
<path d="M440 27H470" stroke="white" stroke-width="7"/>
<path d="M440 37H470" stroke="white" stroke-width="7"/>
<rect x="245" y="20" width="20" height="20" fill="white"/>
<path d="M240 27H270" stroke="white" stroke-width="7"/>
<path d="M240 37H270" stroke="white" stroke-width="7"/>
<rect x="325" y="20" width="20" height="20" fill="white"/>
<path d="M320 27H350" stroke="white" stroke-width="7"/>
<path d="M320 37H370" stroke="white" stroke-width="7"/>
<rect x="405" y="20" width="20" height="20" fill="white"/>
<path d="M400 27H430" stroke="white" stroke-width="7"/>
<path d="M400 37H430" stroke="white" stroke-width="7"/>
<rect x="245" y="40" width="20" height="20" fill="white"/>
<path d="M240 47H270" stroke="white" stroke-width="7"/>
<path d="M240 57H270" stroke="white" stroke-width="7"/>
<rect x="325" y="40" width="20" height="20" fill="white"/>
<rect x="345" y="30" width="20" height="20" fill="white"/>
<path d="M320 47H370" stroke="white" stroke-width="7"/>
<path d="M320 57H350" stroke="white" stroke-width="7"/>
<rect x="405" y="40" width="20" height="20" fill="white"/>
<path d="M400 47H430" stroke="white" stroke-width="7"/>
<path d="M400 57H430" stroke="white" stroke-width="7"/>
<rect x="245" y="60" width="20" height="20" fill="white"/>
<path d="M240 67H270" stroke="white" stroke-width="7"/>
<path d="M240 77H270" stroke="white" stroke-width="7"/>
<rect x="325" y="60" width="20" height="20" fill="white"/>
<path d="M320 67H350" stroke="white" stroke-width="7"/>
<path d="M320 77H350" stroke="white" stroke-width="7"/>
<rect x="405" y="60" width="20" height="20" fill="white"/>
<path d="M400 67H430" stroke="white" stroke-width="7"/>
<path d="M400 77H430" stroke="white" stroke-width="7"/>
<rect x="205" y="40" width="20" height="20" fill="white"/>
<path d="M200 47H230" stroke="white" stroke-width="7"/>
<path d="M200 57H230" stroke="white" stroke-width="7"/>
<rect x="645" y="40" width="20" height="20" fill="white"/>
<path d="M640 47H670" stroke="white" stroke-width="7"/>
<path d="M640 57H670" stroke="white" stroke-width="7"/>
<rect x="725" y="40" width="20" height="20" fill="white"/>
<path d="M720 47H750" stroke="white" stroke-width="7"/>
<path d="M720 57H750" stroke="white" stroke-width="7"/>
<rect x="185" y="60" width="20" height="20" fill="white"/>
<path d="M180 67H210" stroke="white" stroke-width="7"/>
<path d="M180 77H210" stroke="white" stroke-width="7"/>
<rect x="625" y="60" width="20" height="20" fill="white"/>
<path d="M620 67H650" stroke="white" stroke-width="7"/>
<path d="M620 77H650" stroke="white" stroke-width="7"/>
<rect x="705" y="40" width="20" height="20" fill="white"/>
<path d="M700 47H730" stroke="white" stroke-width="7"/>
<path d="M700 57H730" stroke="white" stroke-width="7"/>
<rect x="205" y="60" width="20" height="20" fill="white"/>
<path d="M200 67H230" stroke="white" stroke-width="7"/>
<path d="M200 77H230" stroke="white" stroke-width="7"/>
<rect x="645" y="60" width="20" height="20" fill="white"/>
<path d="M640 67H670" stroke="white" stroke-width="7"/>
<path d="M640 77H670" stroke="white" stroke-width="7"/>
<rect x="725" y="60" width="20" height="20" fill="white"/>
<path d="M715 67L750 67" stroke="white" stroke-width="7"/>
<path d="M720 77H750" stroke="white" stroke-width="7"/>
<rect x="165" y="40" width="20" height="20" fill="white"/>
<path d="M160 47H190" stroke="white" stroke-width="7"/>
<path d="M160 57H190" stroke="white" stroke-width="7"/>
<rect x="605" y="40" width="20" height="20" fill="white"/>
<path d="M600 47H630" stroke="white" stroke-width="7"/>
<path d="M600 57H630" stroke="white" stroke-width="7"/>
<rect x="685" y="40" width="20" height="20" fill="white"/>
<path d="M680 47H710" stroke="white" stroke-width="7"/>
<path d="M680 57H710" stroke="white" stroke-width="7"/>
<rect x="165" y="60" width="20" height="20" fill="white"/>
<path d="M160 67H190" stroke="white" stroke-width="7"/>
<path d="M160 77H190" stroke="white" stroke-width="7"/>
<rect x="605" y="60" width="20" height="20" fill="white"/>
<path d="M600 67H630" stroke="white" stroke-width="7"/>
<path d="M600 77H630" stroke="white" stroke-width="7"/>
<rect x="685" y="60" width="20" height="20" fill="white"/>
<path d="M680 67H710" stroke="white" stroke-width="7"/>
<path d="M680 77H710" stroke="white" stroke-width="7"/>
<rect x="85" y="60" width="20" height="20" fill="white"/>
<path d="M80 67H110" stroke="white" stroke-width="7"/>
<path d="M80 77H110" stroke="white" stroke-width="7"/>
<rect x="5" y="40" width="20" height="20" fill="white"/>
<path d="M0 47H30" stroke="white" stroke-width="7"/>
<path d="M0 57H30" stroke="white" stroke-width="7"/>
<rect x="25" y="40" width="20" height="20" fill="white"/>
<path d="M20 47H50" stroke="white" stroke-width="7"/>
<path d="M20 57H50" stroke="white" stroke-width="7"/>
<rect x="45" y="40" width="20" height="20" fill="white"/>
<path d="M40 47H70" stroke="white" stroke-width="7"/>
<path d="M40 57H70" stroke="white" stroke-width="7"/>
<rect x="5" y="60" width="20" height="20" fill="white"/>
<path d="M0 67H30" stroke="white" stroke-width="7"/>
<path d="M0 77H30" stroke="white" stroke-width="7"/>
</svg>
